<svg xmlns="http://www.w3.org/2000/svg" viewBox="0 0 5.87 4.34">
    <g style="isolation:isolate">
        <g id="Layer_3" data-name="Layer 3">
            <path id="COOL_T_DWARFS" d="M2.19,2.29C2.64,2.29,3,1.29,3,0H1.3C1.34,1.3,1.74,2.29,2.19,2.29Z"
                transform="translate(-0.92 0.01)" fill="none" stroke="#000" stroke-miterlimit="10"
                stroke-width="0.05" />
            <path id="LIRGS"
                d="M3.58,3.22a.91.91,0,0,1,1.06-1A2.82,2.82,0,0,1,6.55,3.31c.38.56-.1,1-1.06,1S3.67,3.8,3.58,3.22"
                transform="translate(-0.92 0.01)" fill="none" stroke="#000" stroke-miterlimit="10" stroke-width="0.05"
                style="mix-blend-mode:multiply" />
            <path id="OBSCURED_AGN"
                d="M6.36,2.32a4.78,4.78,0,0,0-1.43-.8,2.17,2.17,0,0,0-.5-.11,1.78,1.78,0,0,0-.34,0c-.37,0-.62.06-.64.14s.3.26.72.38L4.35,2a3.2,3.2,0,0,1,.78.52c.62.59,1,1.07,1.37,1S7,2.94,6.36,2.32Z"
                transform="translate(-0.92 0.01)" fill="none" stroke="#000" stroke-miterlimit="10" stroke-width="0.05"
                style="mix-blend-mode:multiply" />
            <path id="STARS"
                d="M1.67,3.39H1.58c-.36,0-.64.17-.64.4s.21.33.51.33l.2,0c.38-.08.69-.25.7-.39S2.06,3.42,1.67,3.39Z"
                transform="translate(-0.92 0.01)" fill="none" stroke="#000" stroke-miterlimit="10" stroke-width="0.05"
                style="mix-blend-mode:multiply" />
            <path id="ELLIPTICALS"
                d="M2.33,3.82A.5.5,0,0,0,2,3.69a.64.64,0,0,0-.2,0c-.22,0-.39.14-.39.2s.26.12.59.13H2A.6.6,0,0,0,2.33,4,.09.09,0,0,0,2.33,3.82Z"
                transform="translate(-0.92 0.01)" fill="none" stroke="#000" stroke-miterlimit="10" stroke-width="0.05"
                style="mix-blend-mode:multiply" />
            <path id="STARBURSTS"
                d="M5.34,2.74A.68.68,0,0,0,5,2.65c-.31,0-.5.26-.5.67s.22.74.56.74a.69.69,0,0,0,.24,0c.42-.17.76-.43.77-.58S5.76,3,5.34,2.74Z"
                transform="translate(-0.92 0.01)" fill="none" stroke="#000" stroke-miterlimit="10" stroke-width="0.05"
                style="mix-blend-mode:multiply" />
            <path id="SPIRALS"
                d="M5.29,3.5c-.09-.11-.37-.17-.8-.17a7.1,7.1,0,0,0-1.07.1A4.07,4.07,0,0,0,2,3.78a.06.06,0,0,0,0,.09,3.39,3.39,0,0,0,1.51.22l.47,0A2.55,2.55,0,0,0,5.26,3.7C5.33,3.63,5.34,3.57,5.29,3.5Z"
                transform="translate(-0.92 0.01)" fill="none" stroke="#000" stroke-miterlimit="10" stroke-width="0.05"
                style="mix-blend-mode:multiply" />
            <path id="SEYFERTS" d="M3.28,2.86c0-.32.48-.57,1.11-.57s1.15.26,1.15.59-.5.57-1.11.56-1.12-.27-1.15-.58"
                transform="translate(-0.92 0.01)" fill="none" stroke="#000" stroke-miterlimit="10"
                stroke-width="0.05" />
            <path id="QSOS"
                d="M4.56,2.62a2,2,0,0,1-.81.66c-.22.05-.36-.09-.3-.33a1.22,1.22,0,0,1,.81-.66c.4-.13.53,0,.3.33"
                transform="translate(-0.92 0.01)" fill="none" stroke="#000" stroke-miterlimit="10"
                stroke-width="0.05" />
        </g>
    </g>
</svg>